<?xml version="1.0" standalone="no"?>
<!DOCTYPE svg PUBLIC "-//W3C//DTD SVG 20010904//EN"
 "http://www.w3.org/TR/2001/REC-SVG-20010904/DTD/svg10.dtd">
<svg version="1.0" xmlns="http://www.w3.org/2000/svg"
 width="224.000000pt" height="224.000000pt" viewBox="0 0 224.000000 224.000000"
 preserveAspectRatio="xMidYMid meet">

<g transform="translate(0.000000,224.000000) scale(0.100000,-0.100000)"
fill="#000000" stroke="none">
<path d="M260 1030 l0 -420 100 0 100 0 0 165 0 165 85 0 85 0 0 -165 0 -165
98 2 97 2 -92 3 -93 4 0 159 0 160 55 0 55 0 0 235 0 235 70 0 70 0 0 -64 0
-65 -37 -4 -38 -4 43 -1 42 -2 0 -330 0 -330 100 0 100 0 0 330 0 330 165 0
166 0 14 -32 c8 -18 14 -26 15 -18 0 9 -7 26 -16 38 -15 21 -21 22 -180 22
l-164 0 0 65 0 65 179 0 c102 0 192 -5 208 -11 42 -15 92 -68 103 -109 13 -46
13 -132 -1 -167 -24 -64 -97 -111 -185 -120 -30 -3 -54 -8 -54 -10 0 -2 41
-61 91 -131 l91 -127 -83 -3 c-76 -3 -85 -1 -102 20 l-19 23 14 -25 c14 -23
22 -25 112 -30 l96 -5 38 -55 38 -55 130 0 129 0 0 420 0 420 -92 3 -93 3 0
-361 0 -360 -63 0 -63 0 -35 48 c-63 83 -131 183 -127 186 1 1 23 8 48 15 107
31 169 112 170 221 0 104 -36 178 -105 217 -38 21 -51 23 -247 23 l-208 0 0
-80 0 -80 -75 0 -75 0 0 80 0 80 -100 0 -100 0 0 -235 0 -235 -40 0 -40 0 0
65 0 65 -130 0 -130 0 0 175 c0 96 -3 175 -7 175 -5 0 -7 -81 -5 -180 l3 -180
129 0 130 0 0 -60 0 -60 -100 0 -100 0 0 -165 0 -165 -70 0 -70 0 0 405 c0
353 -2 405 -15 405 -13 0 -15 -53 -15 -420z m1600 10 l0 -400 -112 0 -113 0
-22 33 c-13 18 -23 37 -23 41 0 4 26 6 58 5 l57 -3 3 362 2 362 75 0 75 0 0
-400z m-790 -85 l0 -315 -75 0 -75 0 0 315 0 315 75 0 75 0 0 -315z"/>
<path d="M1450 1166 c0 -38 -28 -46 -156 -46 l-124 0 0 -66 c0 -66 0 -67 70
-165 39 -54 76 -101 83 -105 6 -5 0 8 -14 27 -127 168 -129 172 -129 237 l0
62 120 0 c107 0 122 2 140 20 18 18 28 50 15 50 -3 0 -5 -6 -5 -14z"/>
</g>
</svg>
